<?xml version="1.0" encoding="iso-8859-1"?>
<!-- Generator: Adobe Illustrator 19.0.0, SVG Export Plug-In . SVG Version: 6.00 Build 0)  -->
<svg version="1.1" id="Layer_1" xmlns="http://www.w3.org/2000/svg" xmlns:xlink="http://www.w3.org/1999/xlink" x="0px" y="0px"
	 viewBox="0 0 357.392 357.392" style="enable-background:new 0 0 357.392 357.392;" xml:space="preserve">
<g id="XMLID_440_">
	<g id="XMLID_441_">
		<path id="XMLID_445_" style="fill:#F4D26B;" d="M357.392,161c0,8.304-18.798,14.385-20.564,22.154
			c-1.823,8.022,12.431,21.642,8.939,28.88c-3.549,7.357-23.119,4.678-28.165,10.998c-5.071,6.35,1.873,24.831-4.477,29.902
			c-6.319,5.046-22.789-5.814-30.146-2.265c-7.238,3.492-8.987,23.171-17.009,24.994c-7.769,1.766-17.86-15.167-26.164-15.167
			s-18.395,16.933-26.164,15.167c-8.022-1.823-9.772-21.502-17.009-24.994c-7.357-3.549-23.827,7.31-30.146,2.264
			c-6.35-5.071,0.594-23.551-4.477-29.902c-5.046-6.319-24.616-3.641-28.165-10.998c-3.492-7.238,10.763-20.857,8.94-28.879
			c-1.766-7.769-20.564-13.851-20.564-22.155s18.798-14.385,20.564-22.154c1.823-8.022-12.431-21.642-8.939-28.88
			c3.549-7.357,23.119-4.678,28.165-10.998c5.071-6.35-1.873-24.831,4.477-29.902c6.319-5.046,22.789,5.814,30.146,2.265
			c7.238-3.492,8.987-23.171,17.009-24.994c7.769-1.766,17.86,15.167,26.164,15.167s18.395-16.933,26.164-15.167
			c8.022,1.823,9.772,21.502,17.009,24.994c7.357,3.549,23.827-7.31,30.146-2.264c6.35,5.071-0.593,23.551,4.477,29.902
			c5.046,6.319,24.616,3.641,28.165,10.998c3.492,7.238-10.763,20.857-8.939,28.879C338.594,146.615,357.392,152.696,357.392,161z"
			/>
		<path id="XMLID_446_" style="fill:#F4CE40;" d="M357.392,161c0-8.304-18.798-14.385-20.564-22.155
			c-1.823-8.022,12.431-21.642,8.94-28.879c-3.549-7.357-23.119-4.678-28.165-10.998c-5.071-6.35,1.873-24.831-4.477-29.902
			c-6.319-5.046-22.789,5.814-30.146,2.264c-7.238-3.492-8.987-23.171-17.009-24.994c-7.769-1.766-17.86,15.167-26.164,15.167
			v198.993c8.304,0,18.395,16.933,26.164,15.167c8.022-1.823,9.771-21.502,17.009-24.994c7.357-3.549,23.827,7.311,30.146,2.265
			c6.35-5.071-0.593-23.551,4.477-29.902c5.046-6.319,24.616-3.641,28.165-10.998c3.492-7.238-10.763-20.857-8.939-28.88
			C338.594,175.385,357.392,169.304,357.392,161z"/>
	</g>
	<g id="XMLID_447_">
		<circle id="XMLID_450_" style="fill:#FCE98E;" cx="239.805" cy="161" r="80.977"/>
		<path id="XMLID_453_" style="fill:#FAE16E;" d="M239.805,80.023v161.954c44.723,0,80.977-36.255,80.977-80.977
			S284.528,80.023,239.805,80.023z"/>
	</g>
	<g id="XMLID_454_">
		<circle id="XMLID_459_" style="fill:#C1E8E6;" cx="156.776" cy="196.947" r="85.383"/>
		<circle id="XMLID_462_" style="fill:#C1E8E6;" cx="71.393" cy="239.792" r="71.393"/>
		<rect id="XMLID_42_" x="66.481" y="239.792" style="fill:#C1E8E6;" width="191.245" height="71.393"/>
	</g>
	<g id="XMLID_463_">
		<circle id="XMLID_467_" style="fill:#A0CFF1;" cx="257.726" cy="255.359" r="55.826"/>
		<rect id="XMLID_470_" x="156.776" y="239.792" style="fill:#A0CFF1;" width="100.95" height="71.393"/>
		<path id="XMLID_474_" style="fill:#A0CFF1;" d="M156.776,111.564V282.33c47.156,0,85.383-38.227,85.383-85.383
			S203.931,111.564,156.776,111.564z"/>
	</g>
</g>
<g>
</g>
<g>
</g>
<g>
</g>
<g>
</g>
<g>
</g>
<g>
</g>
<g>
</g>
<g>
</g>
<g>
</g>
<g>
</g>
<g>
</g>
<g>
</g>
<g>
</g>
<g>
</g>
<g>
</g>
</svg>
