<?xml version="1.0" encoding="iso-8859-1"?>
<!-- Generator: Adobe Illustrator 19.0.0, SVG Export Plug-In . SVG Version: 6.00 Build 0)  -->
<svg version="1.1" id="Layer_1" xmlns="http://www.w3.org/2000/svg" xmlns:xlink="http://www.w3.org/1999/xlink" x="0px" y="0px"
	 viewBox="0 0 490.999 490.999" style="enable-background:new 0 0 490.999 490.999;" xml:space="preserve">
<g>
	<rect x="88.845" y="426.23" style="fill:#D1E7F8;" width="40" height="64.77"/>
	<path style="fill:#D1E7F8;" d="M108.846,349.208c-6.837,0-13.521-0.66-20-1.905v42.004h40v-40.099H108.846z"/>
	<rect x="177.046" y="349.208" style="fill:#D1E7F8;" width="40" height="141.791"/>
	<rect x="265.247" y="446.23" style="fill:#BDDBFF;" width="40" height="44.77"/>
	<rect x="265.247" y="349.208" style="fill:#BDDBFF;" width="40" height="60.099"/>
	<path style="fill:#BDDBFF;" d="M373.446,349.208h-20v141.791h40V347.303C386.968,348.548,380.283,349.208,373.446,349.208z"/>
	<path style="fill:#BDDBFF;" d="M241.146,20.25c-12.659,0-24.991,1.55-36.81,4.467c-55.463,13.693-99.559,57.644-112.534,114.336
		c-50.244,8.175-88.72,51.875-88.72,104.391c0,58.318,47.445,105.763,105.763,105.763h132.3V20.25z"/>
	<path style="fill:#9BC9FF;" d="M390.489,139.054C374.75,70.282,313.218,20.25,241.146,20.25v328.958h132.3
		c58.318,0,105.763-47.445,105.763-105.763c0-20.127-5.657-38.956-15.457-54.99C447.983,162.654,421.477,144.096,390.489,139.054z"
		/>
	<path style="fill:#FFCD00;" d="M459.575,102.872c-2.5-11.828-7.17-22.864-13.573-32.672l20.069-20.069l-28.285-28.284
		l-20.069,20.069c-9.808-6.403-20.843-11.073-32.672-13.573V0h-40v28.368c-10.252,2.174-20.11,6.001-29.145,11.328
		c36.456,20.387,63.9,55.294,74.122,97.413l2.172,2.242c22.251,3.998,42.107,14.976,57.214,30.581
		c4.713-8.46,8.135-17.58,10.14-27.061h28.368v-40H459.575z"/>
</g>
<g>
</g>
<g>
</g>
<g>
</g>
<g>
</g>
<g>
</g>
<g>
</g>
<g>
</g>
<g>
</g>
<g>
</g>
<g>
</g>
<g>
</g>
<g>
</g>
<g>
</g>
<g>
</g>
<g>
</g>
</svg>
