<?xml version="1.0" encoding="iso-8859-1"?>
<!-- Generator: Adobe Illustrator 19.0.0, SVG Export Plug-In . SVG Version: 6.00 Build 0)  -->
<svg version="1.1" id="Layer_1" xmlns="http://www.w3.org/2000/svg" xmlns:xlink="http://www.w3.org/1999/xlink" x="0px" y="0px"
	 viewBox="0 0 473.931 473.931" style="enable-background:new 0 0 473.931 473.931;" xml:space="preserve">
<circle style="fill:#344E5D;" cx="236.966" cy="236.966" r="236.966"/>
<g>
	<path style="fill:#FFFFFF;" d="M392.735,168.634c0.239-1.781,1.403-3.315,1.403-5.167c0-28.213-30.51-51.094-68.164-51.094
		c-4.924,0-9.31,1.366-13.957,2.118c-11.285-14.997-31.88-25.549-56.501-25.549c-31.884,0-57.223,17.343-63.21,39.951
		c-30.922,6.136-54.248,26.32-54.248,51.457c0,23.805,20.8,43.408,49.257,50.671c9.646,21.702,36.082,37.605,68.201,37.605
		c29.137,0,53.833-13.048,65.496-31.569c7.484,2.499,15.671,3.981,24.389,3.981c33.384,0,60.467-20.314,60.467-45.406
		C405.869,185.326,400.458,176.259,392.735,168.634z"/>
	<path style="fill:#FFFFFF;" d="M213.026,174.153c0.146-1.081,0.849-2.017,0.849-3.139c0-17.141-18.533-31.042-41.406-31.042
		c-2.997,0-5.658,0.834-8.479,1.291c-6.855-9.111-19.36-15.517-34.319-15.517c-19.367,0-34.765,10.529-38.398,24.262
		c-18.784,3.734-32.954,15.989-32.954,31.259c0,14.458,12.636,26.364,29.919,30.78c5.86,13.182,21.915,22.843,41.429,22.843
		c17.699,0,32.695-7.925,39.779-19.177c4.554,1.515,9.523,2.417,14.821,2.417c20.273,0,36.729-12.344,36.729-27.581
		C221,184.289,217.718,178.789,213.026,174.153z"/>
	<path style="fill:#FFFFFF;" d="M286.971,228.622c-0.123,0.898-0.707,1.68-0.707,2.608c0,14.252,15.412,25.803,34.428,25.803
		c2.485,0,4.7-0.692,7.046-1.07c5.691,7.573,16.093,12.902,28.531,12.902c16.101,0,28.898-8.756,31.913-20.176
		c15.618-3.102,27.397-13.291,27.397-25.983c0-12.022-10.503-21.919-24.868-25.594c-4.876-10.956-18.226-18.986-34.443-18.986
		c-14.72,0-27.188,6.585-33.07,15.94c-3.787-1.257-7.914-2.009-12.322-2.009c-16.86,0-30.54,10.26-30.54,22.926
		C280.336,220.195,283.068,224.771,286.971,228.622z"/>
	<path style="fill:#FFFFFF;" d="M138.34,269.657c0,0-26.873,10.121-29.328,12.569c-4.625,4.632-4.625,12.131,0,16.759
		c4.632,4.629,12.131,4.629,16.759,0C128.223,296.534,138.34,269.657,138.34,269.657z"/>
	<path style="fill:#FFFFFF;" d="M140.211,327.034c0,0-26.873,10.118-29.328,12.569c-4.625,4.625-4.625,12.123,0,16.756
		c4.632,4.629,12.131,4.629,16.759,0C130.094,353.903,140.211,327.034,140.211,327.034z"/>
	<path style="fill:#FFFFFF;" d="M202.564,273.953c0,0-26.873,10.118-29.32,12.569c-4.632,4.625-4.632,12.123-0.007,16.756
		c4.632,4.629,12.131,4.629,16.763,0C192.446,300.826,202.564,273.953,202.564,273.953z"/>
</g>
<polygon style="fill:#F1EB75;" points="302.843,340.994 280.842,322.742 344.508,291.24 287.73,278.626 237.983,315.154 
	256.629,320.89 213.767,354.614 230.429,358.711 194.676,384.964 270.331,369.937 256.745,358.663 "/>
<g>
</g>
<g>
</g>
<g>
</g>
<g>
</g>
<g>
</g>
<g>
</g>
<g>
</g>
<g>
</g>
<g>
</g>
<g>
</g>
<g>
</g>
<g>
</g>
<g>
</g>
<g>
</g>
<g>
</g>
</svg>
